<?xml version="1.0" encoding="utf-8"?>
<!-- Generator: Adobe Illustrator 26.4.1, SVG Export Plug-In . SVG Version: 6.00 Build 0)  -->
<svg version="1.1" id="Layer_1" xmlns="http://www.w3.org/2000/svg" xmlns:xlink="http://www.w3.org/1999/xlink" x="0px" y="0px"
	 viewBox="0 0 612 325.81" style="enable-background:new 0 0 612 325.81;" xml:space="preserve">
<style type="text/css">
	.st0{fill:#FFFFFF;stroke:#000000;stroke-miterlimit:10;}
</style>
<path class="st0" d="M50.62,202.15l64.32-80.75c11.21-14.08,33.88-5.25,32.62,12.7l0,0c-1.5,21.4,28.68,27.52,35.62,7.22L220,33.74
	c6.43-18.8,33.99-15.36,35.61,4.45l13.97,171.63c1.65,20.22,30.07,23.18,35.84,3.73l30.79-103.78c4.43-14.93,24.28-17.88,32.87-4.88
	l41.24,62.47c5.62,8.51,17.09,10.8,25.55,5.1l52.83-35.64c10.37-7,24.54-1.78,27.9,10.27l44.78,160.46"/>
</svg>
